<?xml version="1.0" encoding="UTF-8"?>
<svg width="512px" height="512px" viewBox="0 0 512 512" version="1.1" xmlns="http://www.w3.org/2000/svg" xmlns:xlink="http://www.w3.org/1999/xlink">
    <!-- Generator: Sketch 55.2 (78181) - https://sketchapp.com -->
    <title>Icon</title>
    <desc>Created with Sketch.</desc>
    <g id="Icon" stroke="none" stroke-width="1" fill="none" fill-rule="evenodd">
        <path d="M146.141456,0 L365.858544,0 C416.675112,-3.43056238e-15 435.102427,5.29105984 453.680205,15.2265641 C472.257983,25.1620684 486.837932,39.7420171 496.773436,58.3197949 C506.70894,76.8975727 512,95.3248882 512,146.141456 L512,365.858544 C512,416.675112 506.70894,435.102427 496.773436,453.680205 C486.837932,472.257983 472.257983,486.837932 453.680205,496.773436 C435.102427,506.70894 416.675112,512 365.858544,512 L146.141456,512 C95.3248882,512 76.8975727,506.70894 58.3197949,496.773436 C39.7420171,486.837932 25.1620684,472.257983 15.2265641,453.680205 C5.29105984,435.102427 2.28704159e-15,416.675112 0,365.858544 L0,146.141456 C-2.28704159e-15,95.3248882 5.29105984,76.8975727 15.2265641,58.3197949 C25.1620684,39.7420171 39.7420171,25.1620684 58.3197949,15.2265641 C76.8975727,5.29105984 95.3248882,3.43056238e-15 146.141456,-5.90428975e-15 Z" id="Combined-Shape" fill="#FFFFFF"></path>
        <g id="Prologue-Glyph" transform="translate(156.000000, 106.000000)">
            <g>
                <path d="M100,131.209379 L50.2261186,131.209379 C44.7032711,131.209379 40.2261186,135.686531 40.2261186,141.209379 C40.2261186,143.233265 40.8402244,145.209517 41.9872795,146.876965 L96.1012324,225.54117 C98.4494342,228.954697 98.4494481,233.46275 96.1012673,236.876291 L41.9871023,315.541843 C38.857009,320.092048 40.0082366,326.318159 44.5584411,329.448253 C46.2258783,330.595286 48.2021108,331.209379 50.2259763,331.209379 L100,331.209379 L164.891889,236.876291 C167.240069,233.46275 167.240056,228.954697 164.891854,225.54117 L100,131.209379 Z" id="Chevron" fill="#E5A00D" fill-rule="nonzero" transform="translate(100.000000, 231.209379) rotate(-90.000000) translate(-100.000000, -231.209379) "></path>
                <path d="M40,0 L160,0 C182.09139,-4.05812251e-15 200,17.90861 200,40 L200,221.405576 L105.666374,156.532897 C102.253369,154.185793 97.7466306,154.185793 94.3336257,156.532897 L0,221.405576 L0,40 C-2.705415e-15,17.90861 17.90861,4.05812251e-15 40,0 Z" id="Bookmark" fill="#000000"></path>
            </g>
        </g>
    </g>
</svg>