<?xml version="1.0" encoding="UTF-8"?>
<svg width="512px" height="512px" viewBox="0 0 512 512" version="1.1" xmlns="http://www.w3.org/2000/svg" xmlns:xlink="http://www.w3.org/1999/xlink">
    <!-- Generator: Sketch 52.5 (67469) - http://www.bohemiancoding.com/sketch -->
    <title>Privacy</title>
    <desc>Created with Sketch.</desc>
    <defs>
        <linearGradient x1="50%" y1="2.69147399%" x2="50%" y2="100%" id="linearGradient-1">
            <stop stop-color="#8E5AF7" offset="0%"></stop>
            <stop stop-color="#8043D6" offset="100%"></stop>
        </linearGradient>
    </defs>
    <g id="Privacy" stroke="none" stroke-width="1" fill="none" fill-rule="evenodd">
        <path d="M146.141456,0 L365.858544,1.18085795e-14 C416.675112,2.47372738e-15 435.102427,5.29105984 453.680205,15.2265641 C472.257983,25.1620684 486.837932,39.7420171 496.773436,58.3197949 C506.70894,76.8975727 512,95.3248882 512,146.141456 L512,365.858544 C512,416.675112 506.70894,435.102427 496.773436,453.680205 C486.837932,472.257983 472.257983,486.837932 453.680205,496.773436 C435.102427,506.70894 416.675112,512 365.858544,512 L146.141456,512 C95.3248882,512 76.8975727,506.70894 58.3197949,496.773436 C39.7420171,486.837932 25.1620684,472.257983 15.2265641,453.680205 C5.29105984,435.102427 6.22323475e-15,416.675112 0,365.858544 L7.87238634e-15,146.141456 C1.64915158e-15,95.3248882 5.29105984,76.8975727 15.2265641,58.3197949 C25.1620684,39.7420171 39.7420171,25.1620684 58.3197949,15.2265641 C76.8975727,5.29105984 95.3248882,9.33485213e-15 146.141456,0 Z" id="Background" fill="url(#linearGradient-1)"></path>
        <path d="M378.559645,237.374202 C385.30389,236.902931 391.888777,239.567255 396.407749,244.595757 C397.51605,246.135364 397.51605,248.211104 396.407749,249.750711 C390.084906,258.6579 364.637399,291.220166 353.336972,326.614721 C334.90305,384.350321 296.124737,406 247.423733,406 C199.137733,405.996551 159.996896,366.850401 160,318.564401 L160,181.165602 C160,174.267124 165.592322,168.674802 172.4908,168.674802 C179.389278,168.674802 184.9816,174.267124 184.9816,181.165602 L184.9816,256.116022 C184.984702,259.563066 187.779954,262.355803 191.227,262.355801 C194.674045,262.355803 197.469297,259.563066 197.4724,256.116022 L197.4724,140.570502 C197.365226,134.922733 200.316945,129.657505 205.190976,126.802228 C210.065007,123.946951 216.101171,123.946951 220.975202,126.802228 C225.849234,129.657505 228.800952,134.922733 228.693779,140.570502 L228.693779,249.870622 C228.696881,253.317666 231.492133,256.110403 234.939178,256.110401 C236.594943,256.111561 238.183307,255.45471 239.354636,254.284434 C240.525966,253.114159 241.184247,251.526387 241.184578,249.870622 L241.184578,121.834303 C241.104949,116.204074 244.063029,110.967116 248.926112,108.128764 C253.789194,105.290412 259.80384,105.290412 264.666922,108.128764 C269.530005,110.967116 272.488085,116.204074 272.408455,121.834303 L272.408455,249.870622 C272.408952,251.526336 273.067287,253.114012 274.23858,254.284251 C275.409874,255.454491 276.998142,256.111395 278.653855,256.110401 C282.100901,256.110403 284.896153,253.317666 284.899255,249.870622 L284.899255,140.570502 C284.804876,134.930851 287.759562,129.678737 292.62852,126.831315 C297.497478,123.983892 303.52366,123.983892 308.392619,126.831315 C313.261577,129.678737 316.216263,134.930851 316.121883,140.570502 L316.121883,290.794854 C316.112564,292.650287 317.346258,294.282396 319.13387,294.779547 C320.921482,295.276698 322.820672,294.515872 323.770625,292.922038 C338.62968,267.88985 359.209522,237.374202 378.559645,237.374202 Z" id="Path" fill="#FFFFFF"></path>
    </g>
</svg>